<svg width="224" height="41" viewBox="0 0 224 41" fill="none" xmlns="http://www.w3.org/2000/svg">
<g clip-path="url(#clip0_5_37)">
<mask id="mask0_5_37" style="mask-type:luminance" maskUnits="userSpaceOnUse" x="0" y="0" width="224" height="41">
<path d="M223.728 0H0V40.508H223.728V0Z" fill="white"/>
</mask>
<g mask="url(#mask0_5_37)">
<path d="M11.9611 0.274179C12.1242 0.000845103 12.3961 0.110179 12.6679 0.110179C14.897 0.110179 17.1262 0.0555115 19.3009 0.0555115C25.5533 0.164845 30.1747 3.00751 32.9475 8.69287C34.7417 12.3555 35.4485 16.2915 35.4485 20.3915C35.5029 26.4595 35.4485 32.5275 35.4485 38.5955C35.4485 38.7595 35.4485 38.9235 35.4485 39.1422C35.3941 40.2902 35.231 40.5089 34.0349 40.5089C31.2077 40.5089 28.3805 40.5089 25.5533 40.5089C24.1397 40.5089 22.6718 40.5635 21.2582 40.5089C19.899 40.5089 19.5728 40.1809 19.5728 38.8142C19.5728 35.6435 19.5728 32.5275 19.5728 29.3569C19.5728 25.8582 19.5728 22.3595 19.5184 18.8609C19.464 16.7835 19.2465 14.7609 18.7572 12.7382C18.1592 10.0595 17.0174 7.59953 15.4407 5.35818C14.3533 3.77284 13.1572 2.24218 12.0698 0.71151C12.0155 0.602177 11.9067 0.492845 11.9611 0.274179Z" fill="#FCBC04"/>
<path d="M31.698 0.0556308C34.9057 0.164964 38.1135 -0.217703 41.3213 0.219631C46.2145 0.87563 49.8572 3.49963 52.1951 7.87299C54.0436 11.2077 55.0225 14.8703 55.0768 18.6423C55.1856 25.3663 55.1312 32.0903 55.1312 38.8143C55.1312 40.2357 54.8594 40.4543 53.3912 40.4543C49.2048 40.4543 45.0184 40.4543 40.8863 40.4543C39.2009 40.4543 39.1465 40.4543 39.1465 38.7597C39.1465 32.801 39.1465 26.897 39.1465 20.9383C39.1465 17.6583 38.8203 14.3783 37.9504 11.2077C36.9718 7.70899 35.232 4.7023 32.8941 1.96896C32.4591 1.4223 32.0242 0.87563 31.5892 0.328964C31.5892 0.219631 31.6436 0.164964 31.698 0.0556308Z" fill="#FCBC04"/>
<path d="M0 20.2284C0 14.2151 0 8.25643 0 2.24313C0 1.96979 0 1.64179 0 1.36846C0.0543689 0.329789 0.380583 -0.0528778 1.46796 0.0564554C2.93592 0.220455 4.34951 0.603125 5.76311 1.14979C9.07961 2.57113 11.5262 4.97646 13.1573 8.20176C15.0058 11.8098 15.9301 15.6364 15.9301 19.6818C15.9301 25.9138 15.9301 32.2004 15.9301 38.4324C15.9301 38.6511 15.9301 38.8698 15.9301 39.0884C15.8757 40.1818 15.7126 40.4004 14.6252 40.4004C10.167 40.4004 5.76311 40.4004 1.30485 40.4004C0.217476 40.4551 0 40.1818 0 38.9791C0 35.8084 0 32.6924 0 29.5218C0 26.4604 0 23.3444 0 20.2284Z" fill="#147971"/>
<path d="M61.9256 3.11855C63.8829 3.11855 65.8946 3.11855 67.8519 3.11855C68.4499 3.11855 68.5043 3.61055 68.6674 3.99322C70.4072 7.21856 72.147 10.4439 73.8324 13.6692C75.6266 17.0586 77.4752 20.4479 79.2693 23.8372C79.4868 24.2199 79.5955 24.6572 79.9761 24.9306C80.4111 24.6572 80.5198 24.2199 80.7373 23.8372C84.2169 17.3866 87.6965 10.9359 91.1218 4.48522C91.7198 3.39188 92.3722 3.00922 93.514 3.11855C94.9276 3.22788 96.3955 3.17322 97.8091 3.11855C98.3528 3.11855 98.6247 3.28255 98.5703 3.88388C98.5703 4.10255 98.5703 4.32122 98.5703 4.53988C98.5703 15.0359 98.5703 25.5319 98.5703 36.0279C98.5703 37.6132 98.679 37.4492 97.048 37.5039C95.6344 37.5039 94.2752 37.5039 92.8616 37.5039C91.9373 37.5039 91.9373 37.5039 91.9373 36.5199C91.9373 33.7866 91.9373 31.1079 91.9373 28.3746C91.9373 24.6026 91.9373 20.8306 91.9373 17.1132C91.9373 16.6759 92.046 16.2386 91.7742 15.7466C91.2849 15.9652 91.1761 16.4572 90.9586 16.8399C88.1315 21.8692 85.3043 26.8986 82.5315 31.9279C82.0965 32.7479 81.5528 33.1852 80.6286 33.0759C79.5412 32.9666 78.2907 33.4586 77.4752 32.8572C76.714 32.3106 76.3878 31.1079 75.8985 30.1786C71.3858 21.5959 66.8188 13.0679 62.3062 4.48522C62.1975 4.10255 61.8169 3.77455 61.9256 3.11855Z" fill="black"/>
<path d="M223.728 37.4468C221.444 37.4468 219.161 37.4468 216.931 37.4468C216.17 37.4468 216.116 36.8455 215.953 36.4082C214.594 32.6908 213.289 28.9188 211.93 25.2015C210.298 20.6642 208.667 16.0722 207.036 11.5348C206.982 11.3162 206.928 11.0975 206.819 10.9335C206.71 10.6602 206.71 10.2775 206.275 10.3322C205.949 10.3868 205.949 10.7148 205.895 10.9335C204.807 14.2682 203.665 17.5482 202.578 20.8828C200.838 26.0762 199.098 31.2148 197.413 36.4082C197.032 37.5015 197.032 37.5015 195.891 37.5015C193.988 37.5015 192.085 37.5015 190.182 37.5015C189.965 37.0095 190.236 36.6268 190.345 36.2988C194.151 25.6388 197.957 14.9788 201.763 4.37351C202.252 3.00685 201.926 3.17085 203.339 3.17085C205.351 3.17085 207.363 3.17085 209.32 3.17085C210.733 3.17085 210.462 3.06151 210.897 4.20951C213.126 9.94951 215.409 15.6895 217.638 21.3748C219.596 26.3495 221.498 31.2695 223.456 36.2442C223.619 36.5722 223.836 36.9002 223.728 37.4468Z" fill="black"/>
<path d="M132.768 3.11771C141.467 3.11771 150.166 3.11771 158.865 3.11771C159.191 3.11771 159.463 3.11771 159.789 3.11771C160.17 3.11771 160.442 3.22705 160.442 3.71905C160.442 5.46836 160.442 7.21769 160.442 8.96703C160.442 9.45903 160.224 9.56836 159.789 9.56836C159.463 9.56836 159.191 9.56836 158.865 9.56836C141.412 9.56836 123.906 9.56836 106.453 9.56836C104.55 9.56836 104.822 9.73236 104.822 7.8737C104.822 6.5617 104.822 5.24971 104.822 3.93771C104.822 3.39104 104.985 3.11771 105.583 3.17238C105.91 3.17238 106.181 3.17238 106.508 3.17238C115.207 3.11771 123.96 3.11771 132.768 3.11771Z" fill="black"/>
<path d="M117.491 30.9969C121.297 30.9969 125.157 30.9969 128.963 30.9969C129.996 30.9969 130.05 30.9969 130.05 32.0902C130.05 33.5662 130.05 35.0422 130.05 36.5729C130.05 37.5022 130.05 37.5022 129.126 37.5022C126.625 37.5022 124.178 37.5022 121.677 37.5022C116.566 37.5022 111.51 37.5022 106.399 37.5022C106.073 37.5022 105.801 37.5022 105.475 37.5022C104.986 37.5022 104.768 37.3382 104.768 36.7915C104.768 35.0969 104.768 33.4022 104.768 31.6529C104.768 30.9969 105.095 30.9422 105.584 30.9422C108.411 30.9422 111.238 30.9422 114.065 30.9422C115.207 30.9969 116.349 30.9969 117.491 30.9969Z" fill="black"/>
<path d="M164.032 15.0906C164.032 11.4279 164.032 7.76522 164.032 4.10255C164.032 3.17322 164.032 3.17322 164.956 3.17322C166.533 3.17322 168.11 3.17322 169.632 3.17322C170.665 3.17322 170.665 3.17322 170.665 4.26655C170.665 10.1706 170.665 16.0746 170.665 21.9786C170.665 23.3999 170.665 24.8759 170.665 26.2972C170.665 27.2266 170.665 27.2812 169.741 27.2812C168.11 27.2812 166.533 27.2812 164.902 27.2812C164.032 27.2812 163.978 27.2266 163.978 26.2972C164.032 22.5252 164.032 18.8079 164.032 15.0906Z" fill="black"/>
<path d="M176.48 30.9964C180.286 30.9964 184.038 30.9964 187.844 30.9964C188.931 30.9964 188.931 30.9964 188.931 32.0897C188.931 33.5657 188.931 35.0417 188.931 36.5177C188.931 37.447 188.877 37.447 188.007 37.447C185.832 37.447 183.657 37.447 181.482 37.447C176.1 37.447 170.717 37.447 165.335 37.447C164.139 37.447 164.139 37.447 164.139 36.2444C164.139 34.823 164.139 33.347 164.139 31.9257C164.139 30.9964 164.193 30.9964 165.063 30.9964C168.814 30.9417 172.675 30.9964 176.48 30.9964Z" fill="black"/>
<path d="M130.05 17.3866C130.05 19.1359 130.05 20.9946 130.05 22.7986C130.05 23.1812 129.832 23.3452 129.452 23.3452C129.18 23.3452 128.908 23.3452 128.691 23.3452C121.188 23.3452 113.685 23.3452 106.128 23.3452C105.91 23.3452 105.693 23.3452 105.475 23.3452C104.986 23.3999 104.768 23.1812 104.768 22.6892C104.768 21.1039 104.768 19.5186 104.768 17.9879C104.768 17.4959 104.931 17.2226 105.421 17.2772C105.638 17.2772 105.856 17.2772 106.073 17.2772C113.631 17.2772 121.188 17.2772 128.745 17.2772C129.126 17.2772 129.561 17.1679 130.05 17.3866Z" fill="black"/>
<path d="M150.168 25.5831C150.168 29.1365 150.168 32.6898 150.168 36.1885C150.168 37.4458 150.168 37.4458 148.972 37.4458C147.558 37.4458 146.09 37.4458 144.677 37.4458C143.589 37.4458 143.589 37.4458 143.589 36.3525C143.589 33.8378 143.589 31.2685 143.589 28.7538C143.589 24.1618 143.589 19.5698 143.589 14.9778C143.589 13.8845 143.589 13.8845 144.622 13.8845C146.09 13.8845 147.558 13.8845 149.081 13.8845C150.168 13.8845 150.168 13.8845 150.168 14.9231C150.168 18.5311 150.168 22.0298 150.168 25.5831Z" fill="black"/>
<path d="M61.7631 12.411C62.1437 12.5204 62.198 12.903 62.3612 13.231C64.101 16.5657 65.8408 19.8457 67.6349 23.1804C67.9068 23.6724 68.1243 24.1644 68.1243 24.7657C68.1243 28.647 68.1243 32.5284 68.1243 36.4097C68.1243 37.4484 68.1243 37.4484 67.0369 37.4484C65.5146 37.4484 63.9922 37.4484 62.4699 37.4484C61.9262 37.4484 61.7087 37.2844 61.7087 36.683C61.7087 28.5924 61.7087 20.5017 61.7631 12.4657C61.6544 12.4657 61.7087 12.411 61.7631 12.411Z" fill="black"/>
</g>
</g>
<defs>
<clipPath id="clip0_5_37">
<rect width="224" height="41" fill="white"/>
</clipPath>
</defs>
</svg>
